<mxfile host="app.diagrams.net" modified="2021-02-09T16:36:04.779Z" agent="5.0 (Windows NT 10.0; Win64; x64) AppleWebKit/537.36 (KHTML, like Gecko) Chrome/88.0.4324.146 Safari/537.36" etag="nIDIVqFl3shdK-9iOUOg" version="14.2.9" type="github">
  <diagram id="N0sqnyFNHyP0shxVAxTN" name="Page-1">
    <mxGraphModel dx="868" dy="393" grid="1" gridSize="10" guides="1" tooltips="1" connect="1" arrows="1" fold="1" page="1" pageScale="1" pageWidth="850" pageHeight="1100" math="0" shadow="0">
      <root>
        <mxCell id="0" />
        <mxCell id="1" parent="0" />
        <UserObject label="employee" tooltip="user" id="RrcjgKfbzL19f1CQFMYI-1">
          <mxCell style="shape=umlActor;verticalLabelPosition=bottom;labelBackgroundColor=#ffffff;verticalAlign=top;html=1;" parent="1" vertex="1">
            <mxGeometry x="126" y="756" width="65" height="107" as="geometry" />
          </mxCell>
        </UserObject>
        <mxCell id="RrcjgKfbzL19f1CQFMYI-2" value="" style="ellipse;whiteSpace=wrap;html=1;" parent="1" vertex="1">
          <mxGeometry x="180.5" y="798.5400000000001" width="68" height="29.31" as="geometry" />
        </mxCell>
        <mxCell id="RrcjgKfbzL19f1CQFMYI-3" value="login" style="text;html=1;strokeColor=none;fillColor=none;align=center;verticalAlign=middle;whiteSpace=wrap;rounded=0;" parent="1" vertex="1">
          <mxGeometry x="160" y="803.19" width="109" height="20" as="geometry" />
        </mxCell>
        <mxCell id="RrcjgKfbzL19f1CQFMYI-4" value="" style="endArrow=none;html=1;exitX=0;exitY=0.75;exitDx=0;exitDy=0;" parent="1" source="RrcjgKfbzL19f1CQFMYI-3" edge="1">
          <mxGeometry width="50" height="50" relative="1" as="geometry">
            <mxPoint x="342" y="727.69" as="sourcePoint" />
            <mxPoint x="187" y="818" as="targetPoint" />
          </mxGeometry>
        </mxCell>
        <mxCell id="RrcjgKfbzL19f1CQFMYI-5" value="" style="ellipse;whiteSpace=wrap;html=1;" parent="1" vertex="1">
          <mxGeometry x="460.25" y="687.69" width="107" height="45" as="geometry" />
        </mxCell>
        <mxCell id="RrcjgKfbzL19f1CQFMYI-6" value="charging hist" style="text;html=1;strokeColor=none;fillColor=none;align=center;verticalAlign=middle;whiteSpace=wrap;rounded=0;" parent="1" vertex="1">
          <mxGeometry x="458.25" y="698.19" width="109" height="20" as="geometry" />
        </mxCell>
        <mxCell id="RrcjgKfbzL19f1CQFMYI-8" value="" style="ellipse;whiteSpace=wrap;html=1;" parent="1" vertex="1">
          <mxGeometry x="464.25" y="738.69" width="107" height="45" as="geometry" />
        </mxCell>
        <mxCell id="RrcjgKfbzL19f1CQFMYI-9" value="transfering hist" style="text;html=1;strokeColor=none;fillColor=none;align=center;verticalAlign=middle;whiteSpace=wrap;rounded=0;" parent="1" vertex="1">
          <mxGeometry x="462.25" y="749.19" width="109" height="20" as="geometry" />
        </mxCell>
        <mxCell id="RrcjgKfbzL19f1CQFMYI-11" value="" style="ellipse;whiteSpace=wrap;html=1;" parent="1" vertex="1">
          <mxGeometry x="468.25" y="790.69" width="107" height="45" as="geometry" />
        </mxCell>
        <mxCell id="RrcjgKfbzL19f1CQFMYI-12" value="charge meter" style="text;html=1;strokeColor=none;fillColor=none;align=center;verticalAlign=middle;whiteSpace=wrap;rounded=0;" parent="1" vertex="1">
          <mxGeometry x="466.25" y="801.19" width="109" height="20" as="geometry" />
        </mxCell>
        <mxCell id="RrcjgKfbzL19f1CQFMYI-14" value="" style="ellipse;whiteSpace=wrap;html=1;" parent="1" vertex="1">
          <mxGeometry x="470.25" y="844.69" width="107" height="45" as="geometry" />
        </mxCell>
        <mxCell id="RrcjgKfbzL19f1CQFMYI-15" value="generate code" style="text;html=1;strokeColor=none;fillColor=none;align=center;verticalAlign=middle;whiteSpace=wrap;rounded=0;" parent="1" vertex="1">
          <mxGeometry x="468.25" y="855.19" width="109" height="20" as="geometry" />
        </mxCell>
        <mxCell id="RrcjgKfbzL19f1CQFMYI-17" value="" style="ellipse;whiteSpace=wrap;html=1;" parent="1" vertex="1">
          <mxGeometry x="472.25" y="896.69" width="107" height="45" as="geometry" />
        </mxCell>
        <mxCell id="RrcjgKfbzL19f1CQFMYI-18" value="inquiries" style="text;html=1;strokeColor=none;fillColor=none;align=center;verticalAlign=middle;whiteSpace=wrap;rounded=0;" parent="1" vertex="1">
          <mxGeometry x="470.25" y="907.19" width="109" height="20" as="geometry" />
        </mxCell>
        <mxCell id="RrcjgKfbzL19f1CQFMYI-20" value="" style="ellipse;whiteSpace=wrap;html=1;" parent="1" vertex="1">
          <mxGeometry x="476.25" y="957.69" width="107" height="45" as="geometry" />
        </mxCell>
        <mxCell id="RrcjgKfbzL19f1CQFMYI-21" value="new customer" style="text;html=1;strokeColor=none;fillColor=none;align=center;verticalAlign=middle;whiteSpace=wrap;rounded=0;" parent="1" vertex="1">
          <mxGeometry x="474.25" y="968.19" width="109" height="20" as="geometry" />
        </mxCell>
        <mxCell id="RrcjgKfbzL19f1CQFMYI-23" value="" style="ellipse;whiteSpace=wrap;html=1;" parent="1" vertex="1">
          <mxGeometry x="471.25" y="1025" width="107" height="45" as="geometry" />
        </mxCell>
        <mxCell id="RrcjgKfbzL19f1CQFMYI-24" value="new area" style="text;html=1;strokeColor=none;fillColor=none;align=center;verticalAlign=middle;whiteSpace=wrap;rounded=0;" parent="1" vertex="1">
          <mxGeometry x="475.25" y="1037.5" width="109" height="20" as="geometry" />
        </mxCell>
        <mxCell id="RrcjgKfbzL19f1CQFMYI-29" value="" style="ellipse;whiteSpace=wrap;html=1;" parent="1" vertex="1">
          <mxGeometry x="410" y="1070" width="107" height="45" as="geometry" />
        </mxCell>
        <mxCell id="RrcjgKfbzL19f1CQFMYI-30" value="logout" style="text;html=1;strokeColor=none;fillColor=none;align=center;verticalAlign=middle;whiteSpace=wrap;rounded=0;" parent="1" vertex="1">
          <mxGeometry x="408" y="1080" width="109" height="20" as="geometry" />
        </mxCell>
        <mxCell id="RrcjgKfbzL19f1CQFMYI-36" value="chargings" style="ellipse;whiteSpace=wrap;html=1;" parent="1" vertex="1">
          <mxGeometry x="662" y="820.19" width="76" height="35" as="geometry" />
        </mxCell>
        <mxCell id="RrcjgKfbzL19f1CQFMYI-39" value="transferings" style="ellipse;whiteSpace=wrap;html=1;" parent="1" vertex="1">
          <mxGeometry x="666" y="857.69" width="76" height="35" as="geometry" />
        </mxCell>
        <mxCell id="RrcjgKfbzL19f1CQFMYI-42" value="" style="ellipse;whiteSpace=wrap;html=1;" parent="1" vertex="1">
          <mxGeometry x="653" y="896.69" width="76" height="35" as="geometry" />
        </mxCell>
        <mxCell id="RrcjgKfbzL19f1CQFMYI-43" value="charges in&amp;nbsp;&lt;br&gt;period" style="text;html=1;strokeColor=none;fillColor=none;align=center;verticalAlign=middle;whiteSpace=wrap;rounded=0;" parent="1" vertex="1">
          <mxGeometry x="649" y="902.94" width="85" height="22.5" as="geometry" />
        </mxCell>
        <mxCell id="RrcjgKfbzL19f1CQFMYI-45" value="" style="ellipse;whiteSpace=wrap;html=1;" parent="1" vertex="1">
          <mxGeometry x="617" y="933.19" width="76" height="35" as="geometry" />
        </mxCell>
        <mxCell id="RrcjgKfbzL19f1CQFMYI-47" value="new meter" style="ellipse;whiteSpace=wrap;html=1;" parent="1" vertex="1">
          <mxGeometry x="662" y="967.69" width="76" height="35" as="geometry" />
        </mxCell>
        <mxCell id="RrcjgKfbzL19f1CQFMYI-49" value="" style="ellipse;whiteSpace=wrap;html=1;" parent="1" vertex="1">
          <mxGeometry x="627.9999999999999" y="1004.19" width="76" height="35" as="geometry" />
        </mxCell>
        <mxCell id="RrcjgKfbzL19f1CQFMYI-51" value="new customer" style="text;html=1;strokeColor=none;fillColor=none;align=center;verticalAlign=middle;whiteSpace=wrap;rounded=0;" parent="1" vertex="1">
          <mxGeometry x="600.5" y="941.69" width="109" height="20" as="geometry" />
        </mxCell>
        <mxCell id="RrcjgKfbzL19f1CQFMYI-53" value="new card" style="text;html=1;strokeColor=none;fillColor=none;align=center;verticalAlign=middle;whiteSpace=wrap;rounded=0;" parent="1" vertex="1">
          <mxGeometry x="611.5" y="1011.69" width="109" height="20" as="geometry" />
        </mxCell>
        <mxCell id="RrcjgKfbzL19f1CQFMYI-74" value="&lt;span style=&quot;color: rgb(0, 0, 0); font-family: helvetica; font-size: 12px; font-style: normal; font-weight: 400; letter-spacing: normal; text-align: center; text-indent: 0px; text-transform: none; word-spacing: 0px; background-color: rgb(248, 249, 250); display: inline; float: none;&quot;&gt;extend&lt;/span&gt;" style="text;whiteSpace=wrap;html=1;" parent="1" vertex="1">
          <mxGeometry x="340" y="718.19" width="60" height="30" as="geometry" />
        </mxCell>
        <mxCell id="RrcjgKfbzL19f1CQFMYI-76" value="&#xa;&#xa;&lt;span style=&quot;color: rgb(0, 0, 0); font-family: helvetica; font-size: 12px; font-style: normal; font-weight: 400; letter-spacing: normal; text-align: center; text-indent: 0px; text-transform: none; word-spacing: 0px; background-color: rgb(248, 249, 250); display: inline; float: none;&quot;&gt;extend&lt;/span&gt;&#xa;&#xa;" style="text;whiteSpace=wrap;html=1;" parent="1" vertex="1">
          <mxGeometry x="395" y="783.69" width="60" height="30" as="geometry" />
        </mxCell>
        <mxCell id="RrcjgKfbzL19f1CQFMYI-77" value="&lt;span style=&quot;color: rgb(0, 0, 0); font-family: helvetica; font-size: 12px; font-style: normal; font-weight: 400; letter-spacing: normal; text-align: center; text-indent: 0px; text-transform: none; word-spacing: 0px; background-color: rgb(248, 249, 250); display: inline; float: none;&quot;&gt;extend&lt;/span&gt;" style="text;whiteSpace=wrap;html=1;" parent="1" vertex="1">
          <mxGeometry x="395" y="768.54" width="60" height="30" as="geometry" />
        </mxCell>
        <mxCell id="RrcjgKfbzL19f1CQFMYI-78" value="&lt;span style=&quot;color: rgb(0, 0, 0); font-family: helvetica; font-size: 12px; font-style: normal; font-weight: 400; letter-spacing: normal; text-align: center; text-indent: 0px; text-transform: none; word-spacing: 0px; background-color: rgb(248, 249, 250); display: inline; float: none;&quot;&gt;extend&lt;/span&gt;" style="text;whiteSpace=wrap;html=1;" parent="1" vertex="1">
          <mxGeometry x="390" y="860.19" width="60" height="30" as="geometry" />
        </mxCell>
        <mxCell id="RrcjgKfbzL19f1CQFMYI-79" value="&#xa;&#xa;&lt;span style=&quot;color: rgb(0, 0, 0); font-family: helvetica; font-size: 12px; font-style: normal; font-weight: 400; letter-spacing: normal; text-align: center; text-indent: 0px; text-transform: none; word-spacing: 0px; background-color: rgb(248, 249, 250); display: inline; float: none;&quot;&gt;extend&lt;/span&gt;&#xa;&#xa;" style="text;whiteSpace=wrap;html=1;" parent="1" vertex="1">
          <mxGeometry x="400.25" y="925.44" width="60" height="30" as="geometry" />
        </mxCell>
        <mxCell id="RrcjgKfbzL19f1CQFMYI-80" value="&lt;span style=&quot;color: rgb(0, 0, 0); font-family: helvetica; font-size: 12px; font-style: normal; font-weight: 400; letter-spacing: normal; text-align: center; text-indent: 0px; text-transform: none; word-spacing: 0px; background-color: rgb(248, 249, 250); display: inline; float: none;&quot;&gt;extend&lt;/span&gt;" style="text;whiteSpace=wrap;html=1;" parent="1" vertex="1">
          <mxGeometry x="400" y="910" width="60" height="30" as="geometry" />
        </mxCell>
        <mxCell id="RrcjgKfbzL19f1CQFMYI-82" value="&lt;span style=&quot;color: rgb(0, 0, 0); font-family: helvetica; font-size: 12px; font-style: normal; font-weight: 400; letter-spacing: normal; text-align: center; text-indent: 0px; text-transform: none; word-spacing: 0px; background-color: rgb(248, 249, 250); display: inline; float: none;&quot;&gt;extend&lt;/span&gt;" style="text;whiteSpace=wrap;html=1;" parent="1" vertex="1">
          <mxGeometry x="370" y="1070" width="60" height="30" as="geometry" />
        </mxCell>
        <mxCell id="RrcjgKfbzL19f1CQFMYI-83" value="&lt;span style=&quot;color: rgb(0, 0, 0); font-family: helvetica; font-size: 12px; font-style: normal; font-weight: 400; letter-spacing: normal; text-align: center; text-indent: 0px; text-transform: none; word-spacing: 0px; background-color: rgb(248, 249, 250); display: inline; float: none;&quot;&gt;extend&lt;/span&gt;" style="text;whiteSpace=wrap;html=1;" parent="1" vertex="1">
          <mxGeometry x="620" y="860" width="60" height="30" as="geometry" />
        </mxCell>
        <mxCell id="RrcjgKfbzL19f1CQFMYI-84" value="&lt;span style=&quot;color: rgb(0, 0, 0); font-family: helvetica; font-size: 12px; font-style: normal; font-weight: 400; letter-spacing: normal; text-align: center; text-indent: 0px; text-transform: none; word-spacing: 0px; background-color: rgb(248, 249, 250); display: inline; float: none;&quot;&gt;extend&lt;/span&gt;" style="text;whiteSpace=wrap;html=1;" parent="1" vertex="1">
          <mxGeometry x="617" y="881.69" width="60" height="30" as="geometry" />
        </mxCell>
        <mxCell id="RrcjgKfbzL19f1CQFMYI-85" value="&lt;span style=&quot;color: rgb(0, 0, 0); font-family: helvetica; font-size: 12px; font-style: normal; font-weight: 400; letter-spacing: normal; text-align: center; text-indent: 0px; text-transform: none; word-spacing: 0px; background-color: rgb(248, 249, 250); display: inline; float: none;&quot;&gt;extend&lt;/span&gt;" style="text;whiteSpace=wrap;html=1;" parent="1" vertex="1">
          <mxGeometry x="600.5" y="911.69" width="60" height="30" as="geometry" />
        </mxCell>
        <mxCell id="RrcjgKfbzL19f1CQFMYI-87" value="&lt;span style=&quot;color: rgb(0, 0, 0); font-family: helvetica; font-size: 12px; font-style: normal; font-weight: 400; letter-spacing: normal; text-align: center; text-indent: 0px; text-transform: none; word-spacing: 0px; background-color: rgb(248, 249, 250); display: inline; float: none;&quot;&gt;extend&lt;/span&gt;" style="text;whiteSpace=wrap;html=1;" parent="1" vertex="1">
          <mxGeometry x="583.25" y="950" width="60" height="30" as="geometry" />
        </mxCell>
        <mxCell id="RrcjgKfbzL19f1CQFMYI-88" value="&lt;span style=&quot;color: rgb(0, 0, 0); font-family: helvetica; font-size: 12px; font-style: normal; font-weight: 400; letter-spacing: normal; text-align: center; text-indent: 0px; text-transform: none; word-spacing: 0px; background-color: rgb(248, 249, 250); display: inline; float: none;&quot;&gt;extend&lt;/span&gt;" style="text;whiteSpace=wrap;html=1;" parent="1" vertex="1">
          <mxGeometry x="611.5" y="981.69" width="60" height="30" as="geometry" />
        </mxCell>
        <mxCell id="RrcjgKfbzL19f1CQFMYI-89" value="&lt;span style=&quot;color: rgb(0, 0, 0); font-family: helvetica; font-size: 12px; font-style: normal; font-weight: 400; letter-spacing: normal; text-align: center; text-indent: 0px; text-transform: none; word-spacing: 0px; background-color: rgb(248, 249, 250); display: inline; float: none;&quot;&gt;extend&lt;/span&gt;" style="text;whiteSpace=wrap;html=1;" parent="1" vertex="1">
          <mxGeometry x="593" y="1016.19" width="60" height="30" as="geometry" />
        </mxCell>
        <mxCell id="kDSIS16SScU64QevWn7Q-1" value="" style="endArrow=none;html=1;fontColor=#FF0000;exitX=0.5;exitY=0;exitDx=0;exitDy=0;entryX=0;entryY=0.75;entryDx=0;entryDy=0;" edge="1" parent="1" source="RrcjgKfbzL19f1CQFMYI-2" target="RrcjgKfbzL19f1CQFMYI-6">
          <mxGeometry width="50" height="50" relative="1" as="geometry">
            <mxPoint x="240" y="850" as="sourcePoint" />
            <mxPoint x="290" y="800" as="targetPoint" />
          </mxGeometry>
        </mxCell>
        <mxCell id="kDSIS16SScU64QevWn7Q-2" value="" style="endArrow=none;html=1;fontColor=#FF0000;exitX=1;exitY=0;exitDx=0;exitDy=0;entryX=0;entryY=0.5;entryDx=0;entryDy=0;" edge="1" parent="1" source="RrcjgKfbzL19f1CQFMYI-2" target="RrcjgKfbzL19f1CQFMYI-8">
          <mxGeometry width="50" height="50" relative="1" as="geometry">
            <mxPoint x="224.5" y="808.54" as="sourcePoint" />
            <mxPoint x="468.25" y="723.19" as="targetPoint" />
          </mxGeometry>
        </mxCell>
        <mxCell id="kDSIS16SScU64QevWn7Q-3" value="" style="endArrow=none;html=1;fontColor=#FF0000;entryX=0;entryY=0.5;entryDx=0;entryDy=0;" edge="1" parent="1" target="RrcjgKfbzL19f1CQFMYI-11">
          <mxGeometry width="50" height="50" relative="1" as="geometry">
            <mxPoint x="250" y="813" as="sourcePoint" />
            <mxPoint x="478.25" y="733.19" as="targetPoint" />
          </mxGeometry>
        </mxCell>
        <mxCell id="kDSIS16SScU64QevWn7Q-4" value="" style="endArrow=none;html=1;fontColor=#FF0000;exitX=0.75;exitY=1;exitDx=0;exitDy=0;entryX=0;entryY=0.75;entryDx=0;entryDy=0;" edge="1" parent="1" source="RrcjgKfbzL19f1CQFMYI-3" target="RrcjgKfbzL19f1CQFMYI-15">
          <mxGeometry width="50" height="50" relative="1" as="geometry">
            <mxPoint x="244.5" y="828.54" as="sourcePoint" />
            <mxPoint x="488.25" y="743.19" as="targetPoint" />
          </mxGeometry>
        </mxCell>
        <mxCell id="kDSIS16SScU64QevWn7Q-5" value="" style="endArrow=none;html=1;fontColor=#FF0000;entryX=0;entryY=0.75;entryDx=0;entryDy=0;exitX=0.679;exitY=1.04;exitDx=0;exitDy=0;exitPerimeter=0;" edge="1" parent="1" source="RrcjgKfbzL19f1CQFMYI-3" target="RrcjgKfbzL19f1CQFMYI-18">
          <mxGeometry width="50" height="50" relative="1" as="geometry">
            <mxPoint x="240" y="830" as="sourcePoint" />
            <mxPoint x="498.25" y="753.19" as="targetPoint" />
          </mxGeometry>
        </mxCell>
        <mxCell id="kDSIS16SScU64QevWn7Q-6" value="" style="endArrow=none;html=1;fontColor=#FF0000;entryX=0;entryY=0.5;entryDx=0;entryDy=0;exitX=0.596;exitY=1.29;exitDx=0;exitDy=0;exitPerimeter=0;" edge="1" parent="1" source="RrcjgKfbzL19f1CQFMYI-3" target="RrcjgKfbzL19f1CQFMYI-20">
          <mxGeometry width="50" height="50" relative="1" as="geometry">
            <mxPoint x="210" y="830" as="sourcePoint" />
            <mxPoint x="508.25" y="763.19" as="targetPoint" />
          </mxGeometry>
        </mxCell>
        <mxCell id="kDSIS16SScU64QevWn7Q-7" value="" style="endArrow=none;html=1;fontColor=#FF0000;entryX=0.082;entryY=0.222;entryDx=0;entryDy=0;entryPerimeter=0;" edge="1" parent="1" target="RrcjgKfbzL19f1CQFMYI-23">
          <mxGeometry width="50" height="50" relative="1" as="geometry">
            <mxPoint x="215" y="830" as="sourcePoint" />
            <mxPoint x="518.25" y="773.19" as="targetPoint" />
          </mxGeometry>
        </mxCell>
        <mxCell id="kDSIS16SScU64QevWn7Q-8" value="" style="endArrow=none;html=1;fontColor=#FF0000;exitX=0.312;exitY=1.19;exitDx=0;exitDy=0;entryX=1;entryY=0.25;entryDx=0;entryDy=0;exitPerimeter=0;" edge="1" parent="1" source="RrcjgKfbzL19f1CQFMYI-3" target="RrcjgKfbzL19f1CQFMYI-82">
          <mxGeometry width="50" height="50" relative="1" as="geometry">
            <mxPoint x="284.5" y="868.54" as="sourcePoint" />
            <mxPoint x="528.25" y="783.19" as="targetPoint" />
          </mxGeometry>
        </mxCell>
        <mxCell id="kDSIS16SScU64QevWn7Q-9" value="" style="endArrow=none;html=1;fontColor=#FF0000;exitX=0.906;exitY=-0.01;exitDx=0;exitDy=0;entryX=0;entryY=0.5;entryDx=0;entryDy=0;exitPerimeter=0;" edge="1" parent="1" source="RrcjgKfbzL19f1CQFMYI-18" target="RrcjgKfbzL19f1CQFMYI-36">
          <mxGeometry width="50" height="50" relative="1" as="geometry">
            <mxPoint x="294.5" y="878.54" as="sourcePoint" />
            <mxPoint x="538.25" y="793.19" as="targetPoint" />
          </mxGeometry>
        </mxCell>
        <mxCell id="kDSIS16SScU64QevWn7Q-10" value="" style="endArrow=none;html=1;fontColor=#FF0000;exitX=0.906;exitY=-0.01;exitDx=0;exitDy=0;exitPerimeter=0;entryX=0.9;entryY=-0.056;entryDx=0;entryDy=0;entryPerimeter=0;" edge="1" parent="1" target="RrcjgKfbzL19f1CQFMYI-84">
          <mxGeometry width="50" height="50" relative="1" as="geometry">
            <mxPoint x="579.0039999999999" y="916.99" as="sourcePoint" />
            <mxPoint x="672" y="847.69" as="targetPoint" />
          </mxGeometry>
        </mxCell>
        <mxCell id="kDSIS16SScU64QevWn7Q-11" value="" style="endArrow=none;html=1;fontColor=#FF0000;exitX=1;exitY=0.75;exitDx=0;exitDy=0;entryX=1;entryY=0.25;entryDx=0;entryDy=0;" edge="1" parent="1" source="RrcjgKfbzL19f1CQFMYI-18" target="RrcjgKfbzL19f1CQFMYI-85">
          <mxGeometry width="50" height="50" relative="1" as="geometry">
            <mxPoint x="589.0039999999999" y="926.99" as="sourcePoint" />
            <mxPoint x="682" y="857.69" as="targetPoint" />
          </mxGeometry>
        </mxCell>
        <mxCell id="kDSIS16SScU64QevWn7Q-12" value="" style="endArrow=none;html=1;fontColor=#FF0000;exitX=0.792;exitY=0.096;exitDx=0;exitDy=0;exitPerimeter=0;" edge="1" parent="1" source="RrcjgKfbzL19f1CQFMYI-17">
          <mxGeometry width="50" height="50" relative="1" as="geometry">
            <mxPoint x="579.0039999999999" y="916.99" as="sourcePoint" />
            <mxPoint x="660" y="800" as="targetPoint" />
          </mxGeometry>
        </mxCell>
        <mxCell id="kDSIS16SScU64QevWn7Q-13" value="codes in period" style="ellipse;whiteSpace=wrap;html=1;" vertex="1" parent="1">
          <mxGeometry x="653.5" y="778.69" width="76" height="35" as="geometry" />
        </mxCell>
        <mxCell id="kDSIS16SScU64QevWn7Q-14" value="&lt;span style=&quot;color: rgb(0, 0, 0); font-family: helvetica; font-size: 12px; font-style: normal; font-weight: 400; letter-spacing: normal; text-align: center; text-indent: 0px; text-transform: none; word-spacing: 0px; background-color: rgb(248, 249, 250); display: inline; float: none;&quot;&gt;extend&lt;/span&gt;" style="text;whiteSpace=wrap;html=1;" vertex="1" parent="1">
          <mxGeometry x="602" y="805.69" width="60" height="30" as="geometry" />
        </mxCell>
        <mxCell id="kDSIS16SScU64QevWn7Q-16" value="" style="endArrow=none;html=1;fontColor=#FF0000;exitX=0;exitY=0.75;exitDx=0;exitDy=0;entryX=0.382;entryY=0.995;entryDx=0;entryDy=0;entryPerimeter=0;" edge="1" parent="1" source="RrcjgKfbzL19f1CQFMYI-87" target="RrcjgKfbzL19f1CQFMYI-45">
          <mxGeometry width="50" height="50" relative="1" as="geometry">
            <mxPoint x="589.25" y="932.19" as="sourcePoint" />
            <mxPoint x="640" y="965" as="targetPoint" />
          </mxGeometry>
        </mxCell>
        <mxCell id="kDSIS16SScU64QevWn7Q-17" value="" style="endArrow=none;html=1;fontColor=#FF0000;exitX=1;exitY=1;exitDx=0;exitDy=0;entryX=0;entryY=0.5;entryDx=0;entryDy=0;" edge="1" parent="1" source="RrcjgKfbzL19f1CQFMYI-21" target="RrcjgKfbzL19f1CQFMYI-47">
          <mxGeometry width="50" height="50" relative="1" as="geometry">
            <mxPoint x="599.25" y="942.19" as="sourcePoint" />
            <mxPoint x="670" y="990" as="targetPoint" />
          </mxGeometry>
        </mxCell>
        <mxCell id="kDSIS16SScU64QevWn7Q-18" value="" style="endArrow=none;html=1;fontColor=#FF0000;exitX=1;exitY=1;exitDx=0;exitDy=0;entryX=0.633;entryY=-0.006;entryDx=0;entryDy=0;entryPerimeter=0;" edge="1" parent="1" source="RrcjgKfbzL19f1CQFMYI-20" target="RrcjgKfbzL19f1CQFMYI-89">
          <mxGeometry width="50" height="50" relative="1" as="geometry">
            <mxPoint x="609.25" y="952.19" as="sourcePoint" />
            <mxPoint x="690.5" y="949.19" as="targetPoint" />
          </mxGeometry>
        </mxCell>
      </root>
    </mxGraphModel>
  </diagram>
</mxfile>
